<svg xmlns="http://www.w3.org/2000/svg" xmlns:xlink="http://www.w3.org/1999/xlink" xml:space="preserve" width="201.333px" height="201.332px" x="0px" y="0px" viewBox="0 0 201.333 201.332"><path fill="#2B2B2B" d="M201.333 100.666c0 55.597-45.072 100.666-100.665 100.666C45.071 201.332 0 156.263 0 100.666S45.071 0 100.668 0c55.592 0 100.665 45.069 100.665 100.666"/><path d="M198.333 100.666c0 53.94-43.729 97.666-97.665 97.666C46.728 198.332 3 154.606 3 100.666S46.728 3 100.668 3c53.936 0 97.665 43.726 97.665 97.666"/><defs><circle id="a" cx="100.666" cy="100.666" r="91.333"/></defs><clipPath id="b"><use xlink:href="#a" overflow="visible"/></clipPath><path fill="#FFDE17" d="M-2 100.666h102.665v97.666H-2z" clip-path="url(#b)"/><path fill="#21409A" d="M100.667 100.666h102.665v97.666H100.667z" clip-path="url(#b)"/><path fill="#00A14B" d="M100.667 3h102.665v97.666H100.667z" clip-path="url(#b)"/><path fill="#ED1C24" d="M-2 3h102.665v97.666H-2z" clip-path="url(#b)"/><defs><circle id="c" cx="100.666" cy="100.666" r="86.667"/></defs><clipPath id="d"><use xlink:href="#c" overflow="visible"/></clipPath><path fill="#DFC323" d="M3.246 100.666h97.419v92.676H3.246z" clip-path="url(#d)"/><path fill="#283676" d="M100.667 100.666h97.419v92.676h-97.419z" clip-path="url(#d)"/><path fill="#00783E" d="M100.667 7.99h97.419v92.676h-97.419z" clip-path="url(#d)"/><path fill="#C92127" d="M3.246 7.99h97.419v92.676H3.246z" clip-path="url(#d)"/><path d="M97.167 6.041h7v189h-7z"/><path d="M6.167 97.166h189v7h-189z"/><circle cx="100.666" cy="100.666" r="33.333"/><circle cx="100.666" cy="100.666" r="28.07" fill="#4C4C4D"/></svg>